<?xml version="1.0" encoding="utf-8"?>
<!-- Generator: Adobe Illustrator 19.2.1, SVG Export Plug-In . SVG Version: 6.00 Build 0)  -->
<svg version="1.1" id="Слой_1" xmlns="http://www.w3.org/2000/svg" xmlns:xlink="http://www.w3.org/1999/xlink" x="0px" y="0px"
	 viewBox="0 0 29.6 33.5" style="enable-background:new 0 0 29.6 33.5;" xml:space="preserve">
<style type="text/css">
	.st0{fill:#9AABB8;}
	.st1{fill:#FFFFFF;stroke:#9AABB8;stroke-width:2.1089;stroke-miterlimit:10;}
</style>
<g>
	<path class="st0" d="M29.5,24.4l0.1-14.9c0-0.6-0.3-1.2-0.9-1.6L15.9,0.3c-0.6-0.3-1.2-0.3-1.8,0L1,7.6C0.5,7.9,0.1,8.5,0.1,9.2
		L0,24.1c0,0.6,0.3,1.2,0.9,1.6l12.8,7.6c0.6,0.3,1.2,0.3,1.8,0l13.1-7.4C29.1,25.6,29.5,25,29.5,24.4z"/>
	<polygon class="st1" points="19.4,8.1 14.8,12.7 10.2,8.1 6.1,12.2 10.7,16.8 6.1,21.4 10.2,25.5 14.8,20.9 19.4,25.5 23.5,21.4 
		18.9,16.8 23.5,12.2 	"/>
</g>
</svg>
