<svg id="Layout" xmlns="http://www.w3.org/2000/svg" viewBox="0 0 45.02 45"><defs><style>.cls-1{fill:#a5dee9;}.cls-2{fill:#fff;}</style></defs><title>fb_d</title><path class="cls-1" d="M184.94,673.11l0,0a22.49,22.49,0,0,0-11.19,19.38h0A22.49,22.49,0,0,0,185,712h0a22.49,22.49,0,0,0,22.54,0l0,0a22.49,22.49,0,0,0,11.19-19.38h0a22.49,22.49,0,0,0-11.24-19.54h0A22.49,22.49,0,0,0,184.94,673.11Z" transform="translate(-173.73 -670.07)"/><path class="cls-2" d="M200.52,693.13H198v9h-4v-10h-2v-3h2V687c0-1.51.79-3.88,4.24-3.88H201v3H198.6C198.24,686,198,687,198,687v2.15h2.9Zm0-.55" transform="translate(-173.73 -670.07)"/></svg>