<svg id="Layer_11" data-name="Layer 11" xmlns="http://www.w3.org/2000/svg" viewBox="0 0 45.02 45"><defs><style>.cls-1{fill:#4267b2;}.cls-2{fill:#fff;}</style></defs><title>fb_h</title><path class="cls-1" d="M779.4,361.54l0,0a22.49,22.49,0,0,0-11.19,19.38h0a22.49,22.49,0,0,0,11.24,19.54h0a22.49,22.49,0,0,0,22.54,0l0,0a22.49,22.49,0,0,0,11.19-19.38h0A22.49,22.49,0,0,0,802,361.52h0A22.49,22.49,0,0,0,779.4,361.54Z" transform="translate(-768.19 -358.49)"/><path class="cls-2" d="M795,381h-2.8v10H788V381h-2v-3.53h2v-2.28a3.9,3.9,0,0,1,4.19-4.19h3.08v3.43h-2.23a0.85,0.85,0,0,0-.88,1v2.08h3.17Zm0,0" transform="translate(-768.19 -358.49)"/></svg>