<svg id="Layout" xmlns="http://www.w3.org/2000/svg" viewBox="0 0 45.02 45"><defs><style>.cls-1{fill:#a5dee9;}.cls-2{fill:#fff;}</style></defs><title>git_d</title><path class="cls-1" d="M366.58,673.11l0,0a22.49,22.49,0,0,0-11.19,19.38h0A22.49,22.49,0,0,0,366.61,712h0a22.49,22.49,0,0,0,22.54,0l0,0a22.49,22.49,0,0,0,11.19-19.38h0a22.49,22.49,0,0,0-11.24-19.54h0A22.49,22.49,0,0,0,366.58,673.11Z" transform="translate(-355.36 -670.07)"/><path class="cls-2" d="M387.95,687.18a11.23,11.23,0,0,0-4.1-4.1,11.35,11.35,0,0,0-11.32,0,11.23,11.23,0,0,0-4.1,4.1,11.29,11.29,0,0,0,6.2,16.36,0.66,0.66,0,0,0,.59-0.1,0.57,0.57,0,0,0,.19-0.44s0-.29,0-0.79,0-.93,0-1.31L375,701a4.26,4.26,0,0,1-.81.05,6.16,6.16,0,0,1-1-.1,2.27,2.27,0,0,1-1-.44,1.86,1.86,0,0,1-.65-0.9l-0.15-.34a3.66,3.66,0,0,0-.46-0.75,1.79,1.79,0,0,0-.64-0.56l-0.1-.07a1.1,1.1,0,0,1-.19-0.18,0.78,0.78,0,0,1-.13-0.2,0.12,0.12,0,0,1,.07-0.17,0.94,0.94,0,0,1,.43-0.07l0.29,0a2.14,2.14,0,0,1,.73.35,2.37,2.37,0,0,1,.71.76,2.59,2.59,0,0,0,.81.92,1.73,1.73,0,0,0,1,.32,4.21,4.21,0,0,0,.84-0.07,2.94,2.94,0,0,0,.66-0.22,2.38,2.38,0,0,1,.72-1.51,10,10,0,0,1-1.5-.26,5.93,5.93,0,0,1-1.38-.57,4,4,0,0,1-1.18-1,4.73,4.73,0,0,1-.77-1.54,7.33,7.33,0,0,1-.3-2.2,4.28,4.28,0,0,1,1.16-3,3.94,3.94,0,0,1,.1-3,2.06,2.06,0,0,1,1.26.2,8.9,8.9,0,0,1,1.23.56l0.62,0.4a10.6,10.6,0,0,1,5.64,0l0.56-.35a7.89,7.89,0,0,1,1.35-.65,1.93,1.93,0,0,1,1.19-.16,3.91,3.91,0,0,1,.12,3,4.28,4.28,0,0,1,1.16,3,7.4,7.4,0,0,1-.3,2.21,4.53,4.53,0,0,1-.78,1.54,4.1,4.1,0,0,1-1.19,1,6,6,0,0,1-1.38.57,10,10,0,0,1-1.5.26,2.62,2.62,0,0,1,.76,2.08V703a0.58,0.58,0,0,0,.18.44,0.64,0.64,0,0,0,.58.1,11.3,11.3,0,0,0,6.2-16.36h0Zm-0.31,0" transform="translate(-355.36 -670.07)"/></svg>