<svg id="Layer_12" data-name="Layer 12" xmlns="http://www.w3.org/2000/svg" viewBox="0 0 30 29.99"><defs><style>.cls-1{fill:#0077b5;}.cls-2{fill:#fff;}</style></defs><title>icon_linkedin</title><path class="cls-1" d="M1968.39,458.94h0a15,15,0,0,0-7.45,12.91h0a15,15,0,0,0,7.49,13h0a15,15,0,0,0,15,0h0a15,15,0,0,0,7.45-12.91h0a15,15,0,0,0-7.49-13h0A15,15,0,0,0,1968.39,458.94Z" transform="translate(-1960.92 -456.91)"/><path class="cls-2" d="M1981.84,473.19v4.38h-2.54v-4.09c0-1-.37-1.73-1.29-1.73a1.39,1.39,0,0,0-1.3.93,1.76,1.76,0,0,0-.09.62v4.27h-2.54s0-6.93,0-7.64h2.54V471h0v0a2.52,2.52,0,0,1,2.29-1.26c1.68,0,2.93,1.09,2.93,3.44h0Zm-10.42-6.95a1.32,1.32,0,1,0,0,2.64h0a1.33,1.33,0,1,0,0-2.64h0Zm-1.29,11.33h2.54v-7.64h-2.54v7.64Zm0,0" transform="translate(-1960.92 -456.91)"/></svg>