<svg id="Layout" xmlns="http://www.w3.org/2000/svg" viewBox="0 0 45.02 45"><defs><style>.cls-1{fill:#a5dee9;}.cls-2{fill:#fff;}</style></defs><title>in_d</title><path class="cls-1" d="M306,673.11l0,0a22.49,22.49,0,0,0-11.19,19.38h0A22.49,22.49,0,0,0,306.06,712h0a22.49,22.49,0,0,0,22.54,0l0,0a22.49,22.49,0,0,0,11.19-19.38h0A22.49,22.49,0,0,0,328.6,673.1h0A22.49,22.49,0,0,0,306,673.11Z" transform="translate(-294.82 -670.07)"/><path class="cls-2" d="M326,694.42v6.71h-4v-5.89c0-1.48-.55-2.49-1.92-2.49a2.07,2.07,0,0,0-1.95,1.34,2.45,2.45,0,0,0-.13.89v6.14h-3.79s0.05-10,0-11H318v1l0,0h0v0a3.87,3.87,0,0,1,3.51-1.93c2.57,0,4.49,1.67,4.49,5.27h0Zm-15.4-10.26a2,2,0,1,0,0,4h0a2,2,0,1,0,0-4h0Zm-1.6,17h4v-11h-4v11Zm-0.33-.06" transform="translate(-294.82 -670.07)"/></svg>