<svg id="Layer_11" data-name="Layer 11" xmlns="http://www.w3.org/2000/svg" viewBox="0 0 45.02 45"><defs><style>.cls-1{fill:#0077b5;}.cls-2{fill:#fff;}</style></defs><title>in_h</title><path class="cls-1" d="M900.49,361.54l0,0a22.49,22.49,0,0,0-11.19,19.38h0a22.49,22.49,0,0,0,11.24,19.54h0a22.49,22.49,0,0,0,22.54,0l0,0a22.49,22.49,0,0,0,11.19-19.38h0a22.49,22.49,0,0,0-11.24-19.54h0A22.49,22.49,0,0,0,900.49,361.54Z" transform="translate(-889.28 -358.49)"/><path class="cls-2" d="M920.69,382.92v6.58h-3.81v-6.14c0-1.54-.55-2.59-1.93-2.59a2.09,2.09,0,0,0-2,1.39,2.64,2.64,0,0,0-.13.93v6.41H909s0.05-10.39,0-11.47h3.81v1.63l0,0h0v0a3.79,3.79,0,0,1,3.44-1.89c2.51,0,4.39,1.64,4.39,5.16h0Zm-15.63-10.42a2,2,0,1,0,0,4h0a2,2,0,1,0,0-4h0Zm-1.93,17h3.81V378h-3.81v11.47Zm0,0" transform="translate(-889.28 -358.49)"/></svg>