<?xml version="1.0" encoding="utf-8"?>
<!-- Generator: Adobe Illustrator 19.2.0, SVG Export Plug-In . SVG Version: 6.00 Build 0)  -->
<svg version="1.1" id="Layer_1" xmlns="http://www.w3.org/2000/svg" xmlns:xlink="http://www.w3.org/1999/xlink" x="0px" y="0px"
	 viewBox="0 0 150.1 57" style="enable-background:new 0 0 150.1 57;" xml:space="preserve">
<style type="text/css">
	.st0{fill:#48546D;}
	.st1{fill:#1E3569;}
	.st2{fill:#96C9FD;}
	.st3{fill:url(#SVGID_1_);}
	.st4{fill:url(#SVGID_2_);}
</style>
<g>
	<g>
		<g>
			<g>
				<g>
					<path class="st0" d="M22.8,32.2c4.5,2.6,6,8.3,3.4,12.8L22,52.3c-2.6,4.5-8.3,6-12.8,3.4c-4.5-2.6-6-8.3-3.4-12.8l4.2-7.2
						C12.5,31.2,18.3,29.6,22.8,32.2z M21,35.3c-2.9-1.7-6.7-0.6-8.4,2.5l-3.7,6.4C7.1,47.2,8,51,10.9,52.7c2.9,1.7,6.7,0.6,8.4-2.5
						l3.7-6.4C24.8,40.8,23.9,36.9,21,35.3z"/>
					<path class="st1" d="M11.4,7.9l12.7,21.7L11.8,50.9L0,27.7L11.4,7.9z"/>
					<path class="st2" d="M49.3,29.8l-25.2-0.1L11.8,50.9l26.1-1.4L49.3,29.8z"/>
					
						<linearGradient id="SVGID_1_" gradientUnits="userSpaceOnUse" x1="201.7374" y1="415.4789" x2="201.7374" y2="390.7707" gradientTransform="matrix(0.866 0.5 0.5 -0.866 -345.9959 267.2071)">
						<stop  offset="0" style="stop-color:#9AACB8"/>
						<stop  offset="1" style="stop-color:#FFFFFF"/>
					</linearGradient>
					<path class="st3" d="M36.4,8.3l12.8,21.5l-25.2-0.1L11.4,7.9L36.4,8.3z"/>
					
						<linearGradient id="SVGID_2_" gradientUnits="userSpaceOnUse" x1="201.8497" y1="685.7607" x2="201.8497" y2="674.673" gradientTransform="matrix(0.866 0.5 -0.5 0.866 194.7301 -669.3303)">
						<stop  offset="0" style="stop-color:#9AACB8;stop-opacity:1.400000e-02"/>
						<stop  offset="1" style="stop-color:#283655;stop-opacity:0.514"/>
					</linearGradient>
					<path class="st4" d="M26.7,25.5c4.5,2.6,10.3,1.1,12.8-3.4l-0.4,0.6l0,0l0.6-1.1c0.5-0.8-0.1-1.4-0.9-1.8
						c-0.8-0.5-1.6-0.6-2,0.2l-0.4,0.7l0,0l0.4-0.6c-1.8,3.1-5.5,4.2-8.4,2.5c-2.9-1.7-3.8-5.5-2.1-8.6L26,14.5l0,0l0.4-0.7
						c0.5-0.8-0.1-1.4-0.9-1.8c-0.8-0.5-1.6-0.6-2,0.2l-0.4,0.7l0,0l0.1-0.2C20.6,17.1,22.2,22.9,26.7,25.5L26.7,25.5z"/>
					<path class="st0" d="M40.6,1.3c4.5,2.6,6,8.3,3.4,12.8l-3.4,5.8l0,0L40.1,21c-0.5,0.8-1.2,0.6-2,0.2c-0.8-0.5-1.3-1-0.9-1.8
						l0.4-0.7l0,0l3.3-5.8c1.8-3.1,0.8-6.9-2.1-8.6c-2.9-1.7-6.7-0.6-8.4,2.5l-3.3,5.8l0,0l-0.4,0.7c-0.5,0.8-1.2,0.6-2,0.2
						c-0.8-0.5-1.3-1-0.9-1.8l0.4-0.7l0,0l3.6-6.2C30.4,0.2,36.1-1.3,40.6,1.3L40.6,1.3z"/>
				</g>
			</g>
		</g>
	</g>
	<g>
		<g>
			<path class="st0" d="M71,4.6c3.7,0,6.5,2.7,6.5,6.4s-2.7,6.4-6.5,6.4c-3.7,0-6.4-2.7-6.4-6.4S67.3,4.6,71,4.6z M71,6.9
				c-2.3,0-3.7,1.7-3.7,4c0,2.3,1.5,4,3.7,4s3.8-1.8,3.8-4C74.7,8.7,73.2,6.9,71,6.9z"/>
			<path class="st0" d="M79.2,20.5V8.2h2.3v1.1C82.2,8.5,83.2,8,84.3,8c2.3,0,4,1.7,4,4.7c0,3-1.7,4.7-4,4.7c-1.1,0-2-0.4-2.8-1.4
				v4.5H79.2z M83.6,10.1c-0.8,0-1.6,0.4-2,1v3.2c0.4,0.6,1.3,1,2,1c1.3,0,2.3-1.1,2.3-2.6C85.8,11.1,84.9,10.1,83.6,10.1z"/>
			<path class="st0" d="M94.1,8c2.7,0,4.5,2,4.5,4.9v0.5h-6.6c0.1,1.1,1.1,2.1,2.6,2.1c0.8,0,1.8-0.3,2.4-0.9l1,1.5
				c-0.9,0.8-2.3,1.2-3.7,1.2c-2.7,0-4.8-1.8-4.8-4.7C89.5,10.1,91.4,8,94.1,8z M91.9,11.8h4.4c-0.1-0.9-0.6-2-2.2-2
				C92.6,9.9,92,10.9,91.9,11.8z"/>
			<path class="st0" d="M106.3,11.7c0-1.2-0.6-1.7-1.6-1.7c-0.9,0-1.6,0.5-2,1.1v6h-2.3V8.2h2.3v1.2c0.6-0.7,1.7-1.4,3.1-1.4
				c2,0,2.9,1.1,2.9,2.8v6.3h-2.3V11.7z"/>
		</g>
		<g>
			<path class="st0" d="M65.1,22.3h5.8c2.7,0,4.1,1.8,4.1,4c0,2.1-1.5,3.9-4.1,3.9h-3.1v4.4h-2.6V22.3z M70.5,24.6h-2.8V28h2.8
				c1,0,1.8-0.7,1.8-1.7C72.4,25.3,71.6,24.6,70.5,24.6z"/>
			<path class="st0" d="M81.6,33.7c-0.6,0.7-1.7,1.1-2.8,1.1c-1.4,0-3.1-1-3.1-3c0-2.1,1.7-2.8,3.1-2.8c1.2,0,2.2,0.4,2.8,1.1v-1.2
				c0-0.9-0.8-1.5-2-1.5c-1,0-1.8,0.4-2.6,1.1l-0.9-1.6c1.1-1,2.5-1.4,3.9-1.4c2,0,3.9,0.8,3.9,3.4v5.8h-2.3V33.7z M81.6,31.4
				c-0.4-0.5-1.1-0.8-1.9-0.8c-0.9,0-1.7,0.5-1.7,1.3c0,0.8,0.8,1.3,1.7,1.3c0.8,0,1.5-0.3,1.9-0.8V31.4z"/>
			<path class="st0" d="M90.4,25.5c1.8,0,2.9,0.8,3.5,1.6l-1.5,1.4c-0.4-0.6-1.1-1-1.9-1c-1.4,0-2.4,1-2.4,2.6c0,1.6,1,2.6,2.4,2.6
				c0.8,0,1.5-0.4,1.9-1l1.5,1.4c-0.6,0.8-1.7,1.6-3.5,1.6c-2.8,0-4.7-1.9-4.7-4.7C85.7,27.4,87.7,25.5,90.4,25.5z"/>
			<path class="st0" d="M98.9,31.2l-1.1,1.1v2.3h-2.3V22.3h2.3v7.4l3.4-4h2.9l-3.5,4l3.6,4.9h-2.9L98.9,31.2z"/>
			<path class="st0" d="M110.8,33.7c-0.6,0.7-1.7,1.1-2.8,1.1c-1.4,0-3.1-1-3.1-3c0-2.1,1.7-2.8,3.1-2.8c1.2,0,2.2,0.4,2.8,1.1v-1.2
				c0-0.9-0.8-1.5-2-1.5c-1,0-1.8,0.4-2.6,1.1l-0.9-1.6c1.1-1,2.5-1.4,3.9-1.4c2,0,3.9,0.8,3.9,3.4v5.8h-2.3V33.7z M110.8,31.4
				c-0.4-0.5-1.1-0.8-1.9-0.8c-0.9,0-1.7,0.5-1.7,1.3c0,0.8,0.8,1.3,1.7,1.3c0.8,0,1.5-0.3,1.9-0.8V31.4z"/>
			<path class="st0" d="M116.3,35.2c0.7,0.8,1.7,1.1,2.8,1.1s2.5-0.5,2.5-2.3v-0.9c-0.7,0.9-1.7,1.4-2.8,1.4c-2.2,0-3.9-1.6-3.9-4.5
				c0-2.9,1.7-4.5,3.9-4.5c1.1,0,2,0.5,2.8,1.4v-1.1h2.4V34c0,3.4-2.6,4.2-4.8,4.2c-1.5,0-2.7-0.4-3.8-1.3L116.3,35.2z M121.6,28.6
				c-0.4-0.6-1.2-1-2-1c-1.3,0-2.3,0.9-2.3,2.5s0.9,2.5,2.3,2.5c0.8,0,1.6-0.4,2-1V28.6z"/>
			<path class="st0" d="M126,23c0-0.8,0.6-1.4,1.4-1.4c0.8,0,1.4,0.6,1.4,1.4c0,0.8-0.6,1.4-1.4,1.4C126.7,24.4,126,23.8,126,23z
				 M126.3,25.7h2.3v8.9h-2.3V25.7z"/>
			<path class="st0" d="M137,29.3c0-1.2-0.6-1.7-1.6-1.7c-0.9,0-1.6,0.5-2,1.1v6h-2.3v-8.9h2.3v1.2c0.6-0.7,1.7-1.4,3.1-1.4
				c2,0,2.9,1.1,2.9,2.8v6.3H137V29.3z"/>
			<path class="st0" d="M142.5,35.2c0.7,0.8,1.7,1.1,2.8,1.1s2.5-0.5,2.5-2.3v-0.9c-0.7,0.9-1.7,1.4-2.8,1.4c-2.2,0-3.9-1.6-3.9-4.5
				c0-2.9,1.7-4.5,3.9-4.5c1.1,0,2,0.5,2.8,1.4v-1.1h2.4V34c0,3.4-2.6,4.2-4.8,4.2c-1.5,0-2.7-0.4-3.8-1.3L142.5,35.2z M147.8,28.6
				c-0.4-0.6-1.2-1-2-1c-1.3,0-2.3,0.9-2.3,2.5s0.9,2.5,2.3,2.5c0.8,0,1.6-0.4,2-1V28.6z"/>
		</g>
		<g>
			<path class="st0" d="M67.8,43.9v8.3h-2.6V39.8h2.7l5.7,8v-8h2.6v12.3h-2.5L67.8,43.9z"/>
			<path class="st0" d="M82.6,43c2.7,0,4.5,2,4.5,4.9v0.5h-6.6c0.1,1.1,1.1,2.1,2.6,2.1c0.8,0,1.8-0.3,2.4-0.9l1,1.5
				c-0.9,0.8-2.3,1.2-3.7,1.2c-2.7,0-4.8-1.8-4.8-4.7C78,45.1,79.9,43,82.6,43z M80.4,46.9h4.4c-0.1-0.9-0.6-2-2.2-2
				C81.1,44.9,80.5,46,80.4,46.9z"/>
			<path class="st0" d="M89.2,50v-4.7h-1.5v-2.1h1.5v-2.4h2.4v2.4h1.8v2.1h-1.8v4c0,0.6,0.3,1,0.8,1c0.4,0,0.7-0.1,0.8-0.3l0.5,1.8
				c-0.4,0.3-1,0.6-2,0.6C90.1,52.4,89.2,51.5,89.2,50z"/>
			<path class="st0" d="M101,46.1l-1.9,6.1h-2.5l-2.7-8.9h2.4l1.7,6l2-6h2.1l2,6l1.7-6h2.4l-2.7,8.9h-2.5L101,46.1z"/>
			<path class="st0" d="M108.7,47.7c0-2.5,1.8-4.7,4.7-4.7c3,0,4.7,2.1,4.7,4.7c0,2.6-1.8,4.7-4.7,4.7
				C110.4,52.4,108.7,50.2,108.7,47.7z M115.7,47.7c0-1.4-0.8-2.6-2.3-2.6c-1.5,0-2.3,1.2-2.3,2.6c0,1.4,0.8,2.6,2.3,2.6
				C114.8,50.3,115.7,49.1,115.7,47.7z"/>
			<path class="st0" d="M119.9,43.2h2.3v1.2c0.6-0.8,1.7-1.4,2.8-1.4v2.3c-0.2,0-0.4-0.1-0.6-0.1c-0.8,0-1.8,0.4-2.2,1v5.9h-2.3
				V43.2z"/>
			<path class="st0" d="M129.9,48.7l-1.1,1.1v2.3h-2.3V39.8h2.3v7.4l3.4-4h2.9l-3.5,4l3.6,4.9h-2.9L129.9,48.7z"/>
		</g>
	</g>
</g>
</svg>
