<svg id="Layout" xmlns="http://www.w3.org/2000/svg" viewBox="0 0 45.02 45"><defs><style>.cls-1{fill:#a5dee9;}.cls-2{fill:#fff;}</style></defs><title>m_d</title><path class="cls-1" d="M427.12,673.11l0,0a22.49,22.49,0,0,0-11.19,19.38h0A22.49,22.49,0,0,0,427.15,712h0a22.49,22.49,0,0,0,22.54,0l0,0a22.49,22.49,0,0,0,11.19-19.38h0a22.49,22.49,0,0,0-11.24-19.54h0A22.49,22.49,0,0,0,427.12,673.11Z" transform="translate(-415.91 -670.07)"/><g id="Page-1"><g id="Monogram"><path id="Shape" class="cls-2" d="M430,687.54a0.43,0.43,0,0,0,0-.7l-2-2.41v-0.31h5.25l5.06,10.53,4.45-10.53H449v0.36l-1.8,1.64a0.48,0.48,0,0,0-.2.47v11a0.47,0.47,0,0,0,.21.47l1.79,1.64v0.36h-8v0.58l1.44-1.68a2.32,2.32,0,0,1,.56-0.47v-9.72l-5.22,12.3h-0.66L431,688.83V697a4.12,4.12,0,0,1,.84.94L434,700.7v0.43h-7V700.7l3-2.74a1.29,1.29,0,0,0,0-.94v-9.48Z" transform="translate(-415.91 -670.07)"/></g></g></svg>