<svg id="Layer_11" data-name="Layer 11" xmlns="http://www.w3.org/2000/svg" viewBox="0 0 45.02 45"><defs><style>.cls-1{fill:#fff;}</style></defs><title>m_h</title><path d="M1021.58,361.54l0,0a22.49,22.49,0,0,0-11.19,19.38h0a22.49,22.49,0,0,0,11.24,19.54h0a22.49,22.49,0,0,0,22.54,0l0,0a22.49,22.49,0,0,0,11.19-19.38h0a22.49,22.49,0,0,0-11.24-19.54h0A22.49,22.49,0,0,0,1021.58,361.54Z" transform="translate(-1010.37 -358.49)"/><g id="Page-1"><g id="Monogram"><path id="Shape" class="cls-1" d="M1024.7,376a0.87,0.87,0,0,0-.27-0.7l-2-2.41v-0.36h6.22l4.8,10.53,4.23-10.53h5.92v0.36l-1.71,1.64a0.49,0.49,0,0,0-.19.47v12a0.48,0.48,0,0,0,.19.47l1.67,1.64v0.36h-8.41v-0.36l1.73-1.68a0.48,0.48,0,0,0,.17-0.47v-9.72l-4.83,12.22h-0.66l-5.6-12.22v8.19a1.15,1.15,0,0,0,.31.94l2.25,2.74v0.36h-6.37v-0.36l2.25-2.74a1.11,1.11,0,0,0,.29-0.94V376Z" transform="translate(-1010.37 -358.49)"/></g></g></svg>