<svg id="Layer_11" data-name="Layer 11" xmlns="http://www.w3.org/2000/svg" viewBox="0 0 45.02 45"><defs><style>.cls-1{fill:#a5dee9;}.cls-2{fill:#fff;}</style></defs><title>7_d</title><path class="cls-1" d="M1856.05,361.54l0,0a22.49,22.49,0,0,0-11.19,19.38h0a22.49,22.49,0,0,0,11.24,19.54h0a22.49,22.49,0,0,0,22.54,0l0,0a22.49,22.49,0,0,0,11.19-19.38h0a22.49,22.49,0,0,0-11.24-19.54h0A22.49,22.49,0,0,0,1856.05,361.54Z" transform="translate(-1844.84 -358.49)"/><path class="cls-2" d="M1873,382a1.45,1.45,0,0,1,.1.53,1.69,1.69,0,0,1-.33,1,1.58,1.58,0,0,1-.84.6h0a1.49,1.49,0,0,1-.49.08,1.74,1.74,0,0,1-1.06-.37,1.6,1.6,0,0,1-.6-1h0a1.43,1.43,0,0,1,0-.31,1.68,1.68,0,0,1,1.1-1.56h0a1.67,1.67,0,0,1,.56-0.1,1.75,1.75,0,0,1,1,.3,1.57,1.57,0,0,1,.63.81h0Zm-1.05,4.25a0.85,0.85,0,0,0-.46-0.14,0.72,0.72,0,0,0-.4.12,7.68,7.68,0,0,1-3.9,1.08,6.69,6.69,0,0,1-3-.67h0a3.14,3.14,0,0,1-.47-0.29,1.89,1.89,0,0,0-.28-0.15,0.84,0.84,0,0,0-.33-0.07,0.75,0.75,0,0,0-.31.07h0a0.72,0.72,0,0,0-.37.31,0.86,0.86,0,0,0-.13.45,0.88,0.88,0,0,0,.1.42,0.76,0.76,0,0,0,.3.3,7.85,7.85,0,0,0,4.42,1.29,9.64,9.64,0,0,0,4.07-.92h0c0.17-.1.39-0.18,0.59-0.31a1.29,1.29,0,0,0,.29-0.24,0.89,0.89,0,0,0,.19-0.36,0.7,0.7,0,0,0,0-.18,0.77,0.77,0,0,0-.08-0.33,0.89,0.89,0,0,0-.32-0.36h0Zm-9.24-2.13h0a1.48,1.48,0,0,0,.51.09,1.74,1.74,0,0,0,1.16-.46,1.56,1.56,0,0,0,.53-1.15v0s0,0,0-.07a1.58,1.58,0,0,0-.52-1.15,1.72,1.72,0,0,0-1.16-.46,1.56,1.56,0,0,0-.35,0h0a1.68,1.68,0,0,0-1.25,1.12h0a1.53,1.53,0,0,0-.08.48,1.72,1.72,0,0,0,.32,1,1.59,1.59,0,0,0,.83.6h0Zm17.81-4.14h0c0,0.06,0,.11,0,0.17a3.27,3.27,0,0,1-.55,1.78,3.59,3.59,0,0,1-1.27,1.18,6.3,6.3,0,0,1,.05.77,6.37,6.37,0,0,1-1.31,3.83h0a11.15,11.15,0,0,1-6.26,3.85h0a16.46,16.46,0,0,1-3.88.46,15.36,15.36,0,0,1-5.71-1.08h0a9.87,9.87,0,0,1-4.78-3.82,6.23,6.23,0,0,1-.92-3.23,5.81,5.81,0,0,1,.05-0.77,3.7,3.7,0,0,1-1.24-1.15,3.38,3.38,0,0,1-.58-1.73h0a3.39,3.39,0,0,1,1-2.33,3.2,3.2,0,0,1,2.28-1h0.31a3.59,3.59,0,0,1,1.29.23h0a4.34,4.34,0,0,1,1,.58,3.14,3.14,0,0,1,.34-0.16,13.8,13.8,0,0,1,6.28-1.69,7,7,0,0,1,.67-3.17,3.3,3.3,0,0,1,2.09-1.67h0a5.44,5.44,0,0,1,1-.1,7.19,7.19,0,0,1,2.66.55,3.3,3.3,0,0,1,1.53-1.25h0a3.86,3.86,0,0,1,1.14-.18,3,3,0,0,1,1.21.25h0a2.93,2.93,0,0,1,1.36,1.1,3,3,0,0,1,.53,1.69,3,3,0,0,1,0,.34h0a3,3,0,0,1-1,2,3.16,3.16,0,0,1-2.06.79l-0.36,0a3.05,3.05,0,0,1-2-1,3,3,0,0,1-.85-2s0-.08,0-0.11a5.5,5.5,0,0,0-2.19-.57l-0.32,0h0a1.68,1.68,0,0,0-1.32.91h0a5.5,5.5,0,0,0-.47,2.46,14.14,14.14,0,0,1,6.14,1.73h0l0,0,0.16,0.09a3.59,3.59,0,0,1,.42-0.31,3.47,3.47,0,0,1,1.92-.57,3.57,3.57,0,0,1,.89.11h0a3.56,3.56,0,0,1,1.78,1.1,3.38,3.38,0,0,1,.84,1.94h0Zm-6.26-7s0,0.06,0,.09h0a1.43,1.43,0,0,0,.45,1,1.45,1.45,0,0,0,1,.41h0.09a1.47,1.47,0,0,0,1-.41,1.42,1.42,0,0,0,.46-1h0a0.81,0.81,0,0,0,0-.08,1.44,1.44,0,0,0-.46-1,1.51,1.51,0,0,0-1-.44,1.2,1.2,0,0,0-.35.05h0a1.57,1.57,0,0,0-.8.52,1.39,1.39,0,0,0-.33.88h0Zm-15.69,5.7a2.11,2.11,0,0,0-.87-0.23h-0.16a1.81,1.81,0,0,0-1.15.48,1.6,1.6,0,0,0-.54,1.12h0s0,0.07,0,.1a1.49,1.49,0,0,0,.22.76,2,2,0,0,0,.39.47,8.12,8.12,0,0,1,2.12-2.73h0Zm18.52,5.22a4.66,4.66,0,0,0-.9-2.68,8.86,8.86,0,0,0-4.61-3.11h0q-0.52-.16-1-0.28a14.46,14.46,0,0,0-7.44.28,8.89,8.89,0,0,0-4.62,3.11h0a4.64,4.64,0,0,0-.89,2.69,4,4,0,0,0,.14,1h0a5.17,5.17,0,0,0,1.1,2,7.89,7.89,0,0,0,1.79,1.53l0.44,0.26a12.9,12.9,0,0,0,6.29,1.53c0.37,0,.74,0,1.11,0a12,12,0,0,0,6.19-2.15h0a7,7,0,0,0,1.51-1.51,4.87,4.87,0,0,0,.86-1.93h0a3.82,3.82,0,0,0,.08-0.79h0Zm1.73-3.79a1.43,1.43,0,0,0-.17-0.68h0a1.65,1.65,0,0,0-.69-0.72,2,2,0,0,0-1.87,0,8.29,8.29,0,0,1,2.13,2.74,1.78,1.78,0,0,0,.4-0.5,1.7,1.7,0,0,0,.21-0.8h0Zm0,0" transform="translate(-1844.84 -358.49)"/></svg>