<svg id="Layout" xmlns="http://www.w3.org/2000/svg" viewBox="0 0 45.02 45"><defs><style>.cls-1{fill:#ff5d00;}.cls-2{fill:#fff;}</style></defs><title>7_h</title><path class="cls-1" d="M487.67,673.11l0,0a22.49,22.49,0,0,0-11.19,19.38h0A22.49,22.49,0,0,0,487.7,712h0a22.49,22.49,0,0,0,22.54,0l0,0a22.49,22.49,0,0,0,11.19-19.38h0a22.49,22.49,0,0,0-11.24-19.54h0A22.49,22.49,0,0,0,487.67,673.11Z" transform="translate(-476.46 -670.07)"/><path class="cls-2" d="M504.61,693.13a1.37,1.37,0,0,1,.09.5,1.59,1.59,0,0,1-.31.94,1.49,1.49,0,0,1-.79.56h0s0,0.55,0,1h0a0.43,0.43,0,0,0-.49-0.36,1.74,1.74,0,0,1-1.06-.37c-0.3-.24-1-1-1-1v-0.28h0a1.53,1.53,0,0,1,0-.33,1.8,1.8,0,0,1,1.18-1.67h0.36A1.65,1.65,0,0,1,503,692a1.73,1.73,0,0,1,1,.29,1.55,1.55,0,0,1,.62.8h0Zm-1,4.68a0.85,0.85,0,0,0-.46-0.14,0.72,0.72,0,0,0-.4.12,7.68,7.68,0,0,1-3.9,1.08,6.69,6.69,0,0,1-3-.67h0a3.14,3.14,0,0,1-.47-0.29,1.89,1.89,0,0,0-.28-0.15,0.84,0.84,0,0,0-.33-0.07,0.75,0.75,0,0,0-.31.07h0a0.72,0.72,0,0,0-.37.31,0.86,0.86,0,0,0-.13.45,0.88,0.88,0,0,0,.1.42,0.76,0.76,0,0,0,.3.3,7.85,7.85,0,0,0,4.42,1.29,9.64,9.64,0,0,0,4.07-.92h0c0.17-.1.39-0.18,0.59-0.31a1.29,1.29,0,0,0,.29-0.24,0.89,0.89,0,0,0,.19-0.36,0.7,0.7,0,0,0,0-.18,0.77,0.77,0,0,0-.08-0.33,0.89,0.89,0,0,0-.32-0.36h0Zm-8.81-2.48h0a1.48,1.48,0,0,0,.51.09,1.74,1.74,0,0,0,1.16-.46,1.56,1.56,0,0,0,.53-1.15v0s0,0,0-.07a1.58,1.58,0,0,0-.52-1.15,1.72,1.72,0,0,0-1.16-.46,1.56,1.56,0,0,0-.35,0h0a1.68,1.68,0,0,0-1.25,1.12h0a1.53,1.53,0,0,0-.08.48,1.72,1.72,0,0,0,.32,1,1.59,1.59,0,0,0,.83.6h0Zm18.21-4.2v0.41a4.2,4.2,0,0,0-.82.17,3.27,3.27,0,0,1-.55,1.78,3.59,3.59,0,0,1-1.27,1.18,6.3,6.3,0,0,1,.05.77,5.85,5.85,0,0,1-1.41,3.83v-0.13h-1.14A10.47,10.47,0,0,1,502,702.7h0a15.57,15.57,0,0,1-3.64.43,14.52,14.52,0,0,1-5.35-1h0a9.23,9.23,0,0,1-4.48-3.54,5.74,5.74,0,0,1-.86-3,5.34,5.34,0,0,1,0-.71,3.45,3.45,0,0,1-1.16-1.06,3.12,3.12,0,0,1-.55-1.61v-0.41a5.11,5.11,0,0,1,.76-2.33,5.89,5.89,0,0,1,2.28-1.33h0c0.09,0.31.18,0.31,0.27,0.31a3.59,3.59,0,0,1,1.29.23v-0.54h0a11.7,11.7,0,0,0,1,1.12,3.14,3.14,0,0,1,.34-0.16,13.8,13.8,0,0,1,6.28-1.69,7,7,0,0,1,.67-3.17,3.3,3.3,0,0,1,2.09-1.67v-0.43h0a1.19,1.19,0,0,0,1,.33,7.19,7.19,0,0,1,2.66.55,3.3,3.3,0,0,1,1.53-1.25h0a3.86,3.86,0,0,1,1.14-.18,7,7,0,0,1,1.57.25h-0.35a2.93,2.93,0,0,1,1.36,1.1,3,3,0,0,1,.53,1.69,3,3,0,0,1,0,.34H510V685a3,3,0,0,1-1,2,3.13,3.13,0,0,1-2,.79l-0.36,0a3,3,0,0,1-1.94-1,3,3,0,0,1-.84-2s0-.08,0-0.11a5.43,5.43,0,0,0-2.17-.57l-0.32,0h0A1.67,1.67,0,0,0,500,685V685s0,1.6,0,2.46a14.3,14.3,0,0,1,6.14,1.71h0l0,0,0.16,0.09a3.59,3.59,0,0,1,.42-0.31,3.47,3.47,0,0,1,1.92-.57,3.37,3.37,0,0,0,.89-0.24h0v0.36h0a3.56,3.56,0,0,1,1.78,1.1,2.39,2.39,0,0,1,.67,1.94v-0.4h1Zm-7-6.54s0,0.06,0,.09h0a1.52,1.52,0,0,0,.46,1,1.44,1.44,0,0,0,1,.43h0.09a1.46,1.46,0,0,0,1-.43,1.51,1.51,0,0,0,.47-1h0a0.88,0.88,0,0,0,0-.09,1.53,1.53,0,0,0-.46-1.07,1.5,1.5,0,0,0-1-.46,1.18,1.18,0,0,0-.36.06h0a1.58,1.58,0,0,0-.81.54,1.48,1.48,0,0,0-.34.92h0Zm-16.27,5.76a2.11,2.11,0,0,0-.87-0.23h-0.16a1.81,1.81,0,0,0-1.15.48,1.6,1.6,0,0,0-.54,1.12h0s0,0.07,0,.1a1.49,1.49,0,0,0,.22.76,2,2,0,0,0,.39.47,8.12,8.12,0,0,1,2.12-2.73h0Zm18.36,5.07a4.52,4.52,0,0,0-.87-2.6,8.6,8.6,0,0,0-4.48-3h0q-0.5-.15-1-0.27a14,14,0,0,0-7.22.27,8.63,8.63,0,0,0-4.48,3v0.05a4.59,4.59,0,0,0-.88,2.66,3.94,3.94,0,0,0,.14,1h0a5.12,5.12,0,0,0,1.09,2,7.81,7.81,0,0,0,1.77,1.51c0.24,0.15.49,0.29,0.75,0.42a11.79,11.79,0,0,0,4.23,1.26,16.05,16.05,0,0,0,2.78,0A11.86,11.86,0,0,0,506,699.7v0a10,10,0,0,0,1.8-1.51,3.39,3.39,0,0,0,.2-1.93v-0.11a3.71,3.71,0,0,0,.08-0.77h0Zm2.39-3.7a1.43,1.43,0,0,0-.17-0.68h0a1.65,1.65,0,0,0-.69-0.72,2,2,0,0,0-1.87,0,8.29,8.29,0,0,1,2.13,2.74,1.78,1.78,0,0,0,.4-0.5,1.7,1.7,0,0,0,.21-0.8h0Zm0,0" transform="translate(-476.46 -670.07)"/></svg>