<svg id="Layout" xmlns="http://www.w3.org/2000/svg" viewBox="0 0 45.02 45"><defs><style>.cls-1{fill:#a5dee9;}.cls-2{fill:#fff;}</style></defs><title>8_d</title><path class="cls-1" d="M548.22,673.11l0,0A22.49,22.49,0,0,0,537,692.51h0A22.49,22.49,0,0,0,548.25,712h0a22.49,22.49,0,0,0,22.54,0l0,0A22.49,22.49,0,0,0,582,692.63h0a22.49,22.49,0,0,0-11.24-19.54h0A22.49,22.49,0,0,0,548.22,673.11Z" transform="translate(-537 -670.07)"/><path class="cls-2" d="M567,688.61a8,8,0,0,0-2.83-1.83,4.45,4.45,0,0,1,2.73-2.41,18,18,0,0,0-10.46-1.55,8.45,8.45,0,0,0-4.87,2.9,7.63,7.63,0,0,0,.83,10.82c0.5,0.43,1.61,1.09,1.63,1.12A4.58,4.58,0,0,1,551,700a19.45,19.45,0,0,0,7.23,2.43,15.21,15.21,0,0,0,3.47,0,8.83,8.83,0,0,0,5.28-2.6A7.94,7.94,0,0,0,567,688.61Zm-1.42,10a7.4,7.4,0,0,1-4.28,2,13.55,13.55,0,0,1-3,0,14.08,14.08,0,0,1-3.52-1,5.23,5.23,0,0,0,1.25-1.79,1.38,1.38,0,0,0,0-1.09,5.83,5.83,0,0,1,1.19-6.73,6.05,6.05,0,0,1,8.47,0A6.1,6.1,0,0,1,565.58,698.66Z" transform="translate(-537 -670.07)"/></svg>