<?xml version="1.0" encoding="utf-8"?>
<!-- Generator: Adobe Illustrator 22.1.0, SVG Export Plug-In . SVG Version: 6.00 Build 0)  -->
<svg version="1.2" baseProfile="tiny" xmlns="http://www.w3.org/2000/svg" xmlns:xlink="http://www.w3.org/1999/xlink" x="0px"
	 y="0px" viewBox="0 0 45 45" xml:space="preserve">
<g id="Layer_1">
</g>
<g id="Layer_9">
	<g>
		<path fill="#1FBF8F" d="M11.2,3L11.2,3C4.3,7.1,0,14.4,0,22.4l0,0C0,30.5,4.3,37.9,11.2,42l0,0c7,4,15.6,4,22.5,0l0,0
			c6.9-4,11.2-11.4,11.2-19.4v0C45,14.5,40.7,7.1,33.8,3l0,0C26.8-1,18.2-1,11.2,3z"/>
		<path fill="#FFFFFF" d="M30,18.5c-0.8-0.8-1.8-1.4-2.8-1.8c0.6-1.8,2.7-2.4,2.7-2.4s-5-2.6-10.5-1.6c-1.8,0.3-3.6,1.4-4.9,2.9
			c-2.8,3.2-2.4,8.1,0.8,10.8c0.5,0.4,1.6,1.1,1.6,1.1c-0.7,1.9-3.1,2.4-3.1,2.4s3.1,1.9,7.2,2.4c1.1,0.1,2.3,0.2,3.5,0
			c1.9-0.2,3.8-1.2,5.3-2.6C33.1,26.7,33.1,21.7,30,18.5z M28.6,28.6c-1.2,1.2-2.9,1.9-4.3,2c-1,0.1-2,0.1-3,0
			c-1.4-0.2-2.5-0.6-3.5-1c0.5-0.5,1-1.2,1.2-1.8c0.1-0.4,0.1-0.7,0-1.1c-1.1-2.3-0.6-5,1.2-6.7c1.3-1.3,3.1-1.9,4.9-1.7
			c1.3,0.2,2.6,0.8,3.5,1.7C31,22.4,30.9,26.3,28.6,28.6z"/>
	</g>
</g>
<g id="Layer_4">
</g>
</svg>
