<?xml version="1.0" encoding="UTF-8"?>
<!DOCTYPE svg PUBLIC "-//W3C//DTD SVG 1.1//EN" "http://www.w3.org/Graphics/SVG/1.1/DTD/svg11.dtd">
<!-- Creator: CorelDRAW X6 -->
<svg xmlns="http://www.w3.org/2000/svg" xml:space="preserve" width="78px" height="78px" version="1.1" style="shape-rendering:geometricPrecision; text-rendering:geometricPrecision; image-rendering:optimizeQuality; fill-rule:evenodd; clip-rule:evenodd"
viewBox="0 0 78 78"
 xmlns:xlink="http://www.w3.org/1999/xlink"
 enable-background="new 0 0 25 25">
 <defs>
  <style type="text/css">
   <![CDATA[
    .fil0 {fill:#E23369}
   ]]>
  </style>
 </defs>
 <g id="Слой_x0020_1">
  <metadata id="CorelCorpID_0Corel-Layer"/>
  <g id="_333867112">
   <path class="fil0" d="M45 29c-4,0 -8,1 -11,4 -4,4 -5,10 -3,15 1,1 1,2 0,3 0,1 -2,3 -3,4 3,1 5,2 8,2 3,0 5,0 7,0l0 0c3,0 7,-2 10,-4 5,-5 6,-14 0,-20 -2,-2 -5,-3 -8,-4l0 0z"/>
   <path class="fil0" d="M39 0c-21,0 -39,18 -39,39 0,21 18,39 39,39 21,0 39,-18 39,-39 0,-21 -18,-39 -39,-39l0 0zm17 56c-3,3 -8,5 -12,5 -3,1 -5,1 -8,0 -9,-1 -17,-5 -17,-5 0,0 6,-1 8,-6 0,0 0,0 0,0 -2,-1 -3,-1 -4,-2 -7,-7 -8,-17 -2,-25 3,-3 7,-5 11,-6 13,-3 24,3 24,3 0,0 -5,2 -6,6 2,1 4,2 6,4 7,7 7,19 0,26l0 0z"/>
  </g>
 </g>
</svg>
