<?xml version="1.0" encoding="utf-8"?>
<!-- Generator: Adobe Illustrator 16.0.1, SVG Export Plug-In . SVG Version: 6.00 Build 0)  -->
<!DOCTYPE svg PUBLIC "-//W3C//DTD SVG 1.1//EN" "http://www.w3.org/Graphics/SVG/1.1/DTD/svg11.dtd">
<svg version="1.1" id="Слой_1" xmlns="http://www.w3.org/2000/svg" xmlns:xlink="http://www.w3.org/1999/xlink" x="0px" y="0px"
	 width="25px" height="25px" viewBox="0 0 25 25" enable-background="new 0 0 25 25" xml:space="preserve">
<g>
	<path fill-rule="evenodd" clip-rule="evenodd" fill="#1D66B1" d="M14.446,9.449c-1.327-0.157-2.655,0.312-3.592,1.17
		c-1.328,1.249-1.64,3.202-0.859,4.842c0.157,0.234,0.157,0.546,0,0.781c-0.155,0.468-0.545,0.937-0.936,1.327
		c0.781,0.312,1.483,0.546,2.577,0.701c0.703,0.079,1.484,0.079,2.186,0l0,0c1.016-0.076,2.265-0.623,3.123-1.403
		c1.718-1.641,1.798-4.452,0.079-6.17C16.32,9.995,15.384,9.605,14.446,9.449L14.446,9.449z"/>
	<path fill-rule="evenodd" clip-rule="evenodd" fill="#1D66B1" d="M12.494,0C5.622,0,0,5.622,0,12.494s5.622,12.494,12.494,12.494
		s12.494-5.622,12.494-12.494S19.366,0,12.494,0L12.494,0z M17.96,17.804c-1.092,1.016-2.498,1.797-3.903,1.875
		c-0.86,0.077-1.719,0.077-2.578,0c-2.967-0.392-5.232-1.797-5.232-1.797s1.718-0.391,2.265-1.718c0,0,0,0,0-0.078
		c-0.391-0.233-0.781-0.469-1.171-0.78c-2.343-2.031-2.655-5.466-0.625-7.809c0.936-1.094,2.265-1.875,3.592-2.109
		c4.061-0.78,7.652,1.094,7.652,1.094s-1.561,0.469-2.031,1.718c0.782,0.312,1.484,0.703,2.11,1.327
		C20.303,11.869,20.225,15.539,17.96,17.804L17.96,17.804z"/>
</g>
</svg>
