<?xml version="1.0" encoding="UTF-8"?>
<!DOCTYPE svg PUBLIC "-//W3C//DTD SVG 1.1//EN" "http://www.w3.org/Graphics/SVG/1.1/DTD/svg11.dtd">
<!-- Creator: CorelDRAW X6 -->
<svg xmlns="http://www.w3.org/2000/svg" xml:space="preserve" width="78px" height="78px" version="1.1" style="shape-rendering:geometricPrecision; text-rendering:geometricPrecision; image-rendering:optimizeQuality; fill-rule:evenodd; clip-rule:evenodd"
viewBox="0 0 78 78"
 xmlns:xlink="http://www.w3.org/1999/xlink"
 enable-background="new 0 0 25 25">
 <defs>
  <style type="text/css">
   <![CDATA[
    .fil1 {fill:#FEFEFE}
    .fil0 {fill:#B8E0EA}
   ]]>
  </style>
 </defs>
 <g id="Слой_x0020_1">
  <metadata id="CorelCorpID_0Corel-Layer"/>
  <path class="fil0" d="M19 5l0 0c-12,7 -19,20 -19,34l0 0c0,0 0,0 0,0 0,14 7,27 19,34l0 0c6,3 13,5 20,5 7,0 14,-2 20,-5l0 0c12,-7 19,-20 19,-34l0 0c0,0 0,0 0,0 0,-14 -7,-27 -19,-34l0 0c-6,-3 -13,-5 -20,-5 -7,0 -14,2 -20,5l0 0z"/>
  <path class="fil1" d="M49 52c0,0 -1,1 -3,1 -3,0 -4,-1 -4,-3 0,-1 0,-7 0,-13l8 0 0 -7 -8 0c0,-7 0,-13 0,-13l-6 0c-1,6 -5,10 -10,13l0 7 6 0c0,8 0,14 0,15 0,2 2,9 12,9 5,0 8,-4 8,-4l-3 -5z"/>
 </g>
</svg>
