<svg id="Слой_1" data-name="Слой 1" xmlns="http://www.w3.org/2000/svg" viewBox="0 0 45.02 45"><defs><style>.cls-1{fill:#b8e0ea;}.cls-2{fill:#fff;}</style></defs><title>telegramm</title><path class="cls-1" d="M287.39,402.11l0,0a22.49,22.49,0,0,0-11.19,19.38h0A22.49,22.49,0,0,0,287.42,441h0A22.49,22.49,0,0,0,310,441l0,0a22.49,22.49,0,0,0,11.19-19.38h0A22.49,22.49,0,0,0,310,402.1h0A22.49,22.49,0,0,0,287.39,402.11Z" transform="translate(-276.18 -399.07)"/><polygon class="cls-2" points="32.69 14 12.33 22.01 18.53 24.06 29.83 16.48 20.82 25.04 28.7 31 32.69 14"/><polygon class="cls-2" points="23.39 26.93 20.8 24.97 20.2 30.15 23.39 26.93"/></svg>