<?xml version="1.0" encoding="utf-8"?>
<!-- Generator: Adobe Illustrator 22.1.0, SVG Export Plug-In . SVG Version: 6.00 Build 0)  -->
<svg version="1.2" baseProfile="tiny" xmlns="http://www.w3.org/2000/svg" xmlns:xlink="http://www.w3.org/1999/xlink" x="0px"
	 y="0px" viewBox="0 0 45 45" xml:space="preserve">
<g id="Layer_1">
</g>
<g id="Layer_9">
	<g>
		<path fill="#41B4E6" d="M11.2,3L11.2,3C4.3,7.1,0,14.4,0,22.4l0,0C0,30.5,4.3,37.9,11.2,42l0,0c7,4,15.6,4,22.5,0l0,0
			c6.9-4,11.2-11.4,11.2-19.4v0C45,14.5,40.7,7.1,33.8,3l0,0C26.8-1,18.2-1,11.2,3z"/>
		<g>
			<polygon fill="#FFFFFF" points="32.7,14 12.3,22 18.5,24.1 29.8,16.5 20.8,25 28.7,31 			"/>
			<polygon fill="#FFFFFF" points="23.4,26.9 20.8,25 20.2,30.2 			"/>
		</g>
	</g>
</g>
</svg>
