<svg id="Layer_11" data-name="Layer 11" xmlns="http://www.w3.org/2000/svg" viewBox="0 0 45.02 45"><defs><style>.cls-1{fill:#1da1f2;}.cls-2{fill:#fff;}</style></defs><title>3_h</title><path class="cls-1" d="M839.95,361.54l0,0a22.49,22.49,0,0,0-11.19,19.38h0A22.49,22.49,0,0,0,840,400.47h0a22.49,22.49,0,0,0,22.54,0l0,0a22.49,22.49,0,0,0,11.19-19.38h0a22.49,22.49,0,0,0-11.24-19.54h0A22.49,22.49,0,0,0,839.95,361.54Z" transform="translate(-828.73 -358.49)"/><path class="cls-2" d="M859.57,376.73c0,0.18,0,.37,0,0.56a12.21,12.21,0,0,1-18.79,10.28,8.63,8.63,0,0,0,6.36-1.78,4.3,4.3,0,0,1-4-3,4.12,4.12,0,0,0,.81.08,4.24,4.24,0,0,0,1.13-.15,4.29,4.29,0,0,1-3.44-4.21,0.28,0.28,0,0,1,0-.06,4.24,4.24,0,0,0,1.94.54,4.29,4.29,0,0,1-1.33-5.73,12.19,12.19,0,0,0,8.85,4.49,4.3,4.3,0,0,1,7.31-3.92,8.48,8.48,0,0,0,2.73-1,4.31,4.31,0,0,1-1.89,2.38,8.51,8.51,0,0,0,2.46-.67,8.73,8.73,0,0,1-2.14,2.22h0Zm0,0" transform="translate(-828.73 -358.49)"/></svg>